<svg width="49" height="52" viewBox="0 0 49 52" fill="none" xmlns="http://www.w3.org/2000/svg">
<g filter="url(#filter0_d_212_593)">
<mask id="path-1-outside-1_212_593" maskUnits="userSpaceOnUse" x="6" y="0" width="43" height="46" fill="black">
<rect fill="white" x="6" width="43" height="46"/>
<path d="M7.8125 45V1.36364H19.6591V18.4091H35.3409V1.36364H47.1875V45H35.3409V27.9545H19.6591V45H7.8125Z"/>
</mask>
<path d="M7.8125 45V1.36364H19.6591V18.4091H35.3409V1.36364H47.1875V45H35.3409V27.9545H19.6591V45H7.8125Z" fill="white"/>
<path d="M7.8125 45H6.8125V46H7.8125V45ZM7.8125 1.36364V0.363635H6.8125V1.36364H7.8125ZM19.6591 1.36364H20.6591V0.363635H19.6591V1.36364ZM19.6591 18.4091H18.6591V19.4091H19.6591V18.4091ZM35.3409 18.4091V19.4091H36.3409V18.4091H35.3409ZM35.3409 1.36364V0.363635H34.3409V1.36364H35.3409ZM47.1875 1.36364H48.1875V0.363635H47.1875V1.36364ZM47.1875 45V46H48.1875V45H47.1875ZM35.3409 45H34.3409V46H35.3409V45ZM35.3409 27.9545H36.3409V26.9545H35.3409V27.9545ZM19.6591 27.9545V26.9545H18.6591V27.9545H19.6591ZM19.6591 45V46H20.6591V45H19.6591ZM8.8125 45V1.36364H6.8125V45H8.8125ZM7.8125 2.36364H19.6591V0.363635H7.8125V2.36364ZM18.6591 1.36364V18.4091H20.6591V1.36364H18.6591ZM19.6591 19.4091H35.3409V17.4091H19.6591V19.4091ZM36.3409 18.4091V1.36364H34.3409V18.4091H36.3409ZM35.3409 2.36364H47.1875V0.363635H35.3409V2.36364ZM46.1875 1.36364V45H48.1875V1.36364H46.1875ZM47.1875 44H35.3409V46H47.1875V44ZM36.3409 45V27.9545H34.3409V45H36.3409ZM35.3409 26.9545H19.6591V28.9545H35.3409V26.9545ZM18.6591 27.9545V45H20.6591V27.9545H18.6591ZM19.6591 44H7.8125V46H19.6591V44Z" fill="#1E3A8A" mask="url(#path-1-outside-1_212_593)"/>
</g>
<defs>
<filter id="filter0_d_212_593" x="0.8125" y="0.36377" width="47.375" height="51.6362" filterUnits="userSpaceOnUse" color-interpolation-filters="sRGB">
<feFlood flood-opacity="0" result="BackgroundImageFix"/>
<feColorMatrix in="SourceAlpha" type="matrix" values="0 0 0 0 0 0 0 0 0 0 0 0 0 0 0 0 0 0 127 0" result="hardAlpha"/>
<feOffset dx="-5" dy="5"/>
<feGaussianBlur stdDeviation="0.5"/>
<feComposite in2="hardAlpha" operator="out"/>
<feColorMatrix type="matrix" values="0 0 0 0 0.117647 0 0 0 0 0.227451 0 0 0 0 0.541176 0 0 0 1 0"/>
<feBlend mode="normal" in2="BackgroundImageFix" result="effect1_dropShadow_212_593"/>
<feBlend mode="normal" in="SourceGraphic" in2="effect1_dropShadow_212_593" result="shape"/>
</filter>
</defs>
</svg>
